<mxfile host="65bd71144e">
    <diagram id="qSvhsfnQnvzDwNPdLLU8" name="fibertree">
        <mxGraphModel dx="1294" dy="719" grid="1" gridSize="10" guides="1" tooltips="1" connect="1" arrows="1" fold="1" page="1" pageScale="1" pageWidth="850" pageHeight="1100" math="0" shadow="0">
            <root>
                <mxCell id="0"/>
                <mxCell id="1" parent="0"/>
                <mxCell id="7" style="edgeStyle=orthogonalEdgeStyle;rounded=0;orthogonalLoop=1;jettySize=auto;html=1;exitX=0.25;exitY=1;exitDx=0;exitDy=0;entryX=0.25;entryY=0;entryDx=0;entryDy=0;fontColor=#000000;" parent="1" source="2" target="3" edge="1">
                    <mxGeometry relative="1" as="geometry"/>
                </mxCell>
                <mxCell id="2" value="App" style="rounded=1;whiteSpace=wrap;html=1;sketch=1;fillColor=none;fontColor=#000000;" parent="1" vertex="1">
                    <mxGeometry x="160" y="40" width="100" height="30" as="geometry"/>
                </mxCell>
                <mxCell id="5" style="edgeStyle=orthogonalEdgeStyle;rounded=0;orthogonalLoop=1;jettySize=auto;html=1;exitX=0.75;exitY=0;exitDx=0;exitDy=0;entryX=0.75;entryY=1;entryDx=0;entryDy=0;fontColor=#000000;" parent="1" source="3" target="2" edge="1">
                    <mxGeometry relative="1" as="geometry"/>
                </mxCell>
                <mxCell id="11" style="edgeStyle=orthogonalEdgeStyle;rounded=0;orthogonalLoop=1;jettySize=auto;html=1;exitX=0.25;exitY=1;exitDx=0;exitDy=0;entryX=0.25;entryY=0;entryDx=0;entryDy=0;fontColor=#000000;" parent="1" source="3" target="8" edge="1">
                    <mxGeometry relative="1" as="geometry"/>
                </mxCell>
                <mxCell id="3" value="div" style="rounded=1;whiteSpace=wrap;html=1;sketch=1;fillColor=none;fontColor=#000000;" parent="1" vertex="1">
                    <mxGeometry x="160" y="120" width="100" height="30" as="geometry"/>
                </mxCell>
                <mxCell id="12" style="edgeStyle=orthogonalEdgeStyle;rounded=0;orthogonalLoop=1;jettySize=auto;html=1;exitX=0.75;exitY=0;exitDx=0;exitDy=0;entryX=0.75;entryY=1;entryDx=0;entryDy=0;fontColor=#000000;" parent="1" source="8" target="3" edge="1">
                    <mxGeometry relative="1" as="geometry"/>
                </mxCell>
                <mxCell id="13" style="edgeStyle=orthogonalEdgeStyle;rounded=0;orthogonalLoop=1;jettySize=auto;html=1;exitX=1;exitY=0.5;exitDx=0;exitDy=0;entryX=0;entryY=0.5;entryDx=0;entryDy=0;fontColor=#000000;" parent="1" source="8" target="9" edge="1">
                    <mxGeometry relative="1" as="geometry"/>
                </mxCell>
                <mxCell id="8" value="i am" style="rounded=1;whiteSpace=wrap;html=1;sketch=1;fillColor=none;fontColor=#000000;" parent="1" vertex="1">
                    <mxGeometry x="160" y="200" width="100" height="30" as="geometry"/>
                </mxCell>
                <mxCell id="14" style="edgeStyle=orthogonalEdgeStyle;rounded=0;orthogonalLoop=1;jettySize=auto;html=1;exitX=0.25;exitY=1;exitDx=0;exitDy=0;entryX=0.25;entryY=0;entryDx=0;entryDy=0;fontColor=#000000;" parent="1" source="9" target="10" edge="1">
                    <mxGeometry relative="1" as="geometry"/>
                </mxCell>
                <mxCell id="16" style="orthogonalLoop=1;jettySize=auto;html=1;exitX=0.5;exitY=0;exitDx=0;exitDy=0;entryX=1;entryY=0.5;entryDx=0;entryDy=0;rounded=0;fontColor=#000000;" parent="1" source="9" target="3" edge="1">
                    <mxGeometry relative="1" as="geometry"/>
                </mxCell>
                <mxCell id="9" value="span" style="rounded=1;whiteSpace=wrap;html=1;sketch=1;fillColor=none;fontColor=#000000;" parent="1" vertex="1">
                    <mxGeometry x="325" y="200" width="100" height="30" as="geometry"/>
                </mxCell>
                <mxCell id="15" style="edgeStyle=orthogonalEdgeStyle;rounded=0;orthogonalLoop=1;jettySize=auto;html=1;exitX=0.75;exitY=0;exitDx=0;exitDy=0;entryX=0.75;entryY=1;entryDx=0;entryDy=0;fontColor=#000000;" parent="1" source="10" target="9" edge="1">
                    <mxGeometry relative="1" as="geometry"/>
                </mxCell>
                <mxCell id="10" value="Lu Min" style="rounded=1;whiteSpace=wrap;html=1;sketch=1;fillColor=none;fontColor=#000000;" parent="1" vertex="1">
                    <mxGeometry x="325" y="280" width="100" height="30" as="geometry"/>
                </mxCell>
                <mxCell id="17" value="child" style="text;html=1;align=center;verticalAlign=middle;resizable=0;points=[];autosize=1;strokeColor=none;fontColor=#000000;" parent="1" vertex="1">
                    <mxGeometry x="140" y="80" width="40" height="20" as="geometry"/>
                </mxCell>
                <mxCell id="18" value="child" style="text;html=1;align=center;verticalAlign=middle;resizable=0;points=[];autosize=1;strokeColor=none;fontColor=#000000;" parent="1" vertex="1">
                    <mxGeometry x="140" y="160" width="40" height="20" as="geometry"/>
                </mxCell>
                <mxCell id="19" value="return" style="text;html=1;align=center;verticalAlign=middle;resizable=0;points=[];autosize=1;strokeColor=none;fontColor=#000000;" parent="1" vertex="1">
                    <mxGeometry x="250" y="90" width="50" height="20" as="geometry"/>
                </mxCell>
                <mxCell id="20" value="return" style="text;html=1;align=center;verticalAlign=middle;resizable=0;points=[];autosize=1;strokeColor=none;fontColor=#000000;" parent="1" vertex="1">
                    <mxGeometry x="240" y="170" width="50" height="20" as="geometry"/>
                </mxCell>
                <mxCell id="21" value="return" style="text;html=1;align=center;verticalAlign=middle;resizable=0;points=[];autosize=1;strokeColor=none;fontColor=#000000;" parent="1" vertex="1">
                    <mxGeometry x="310" y="150" width="50" height="20" as="geometry"/>
                </mxCell>
                <mxCell id="22" value="sibling" style="text;html=1;align=center;verticalAlign=middle;resizable=0;points=[];autosize=1;strokeColor=none;fontColor=#000000;" parent="1" vertex="1">
                    <mxGeometry x="270" y="220" width="50" height="20" as="geometry"/>
                </mxCell>
                <mxCell id="23" value="child" style="text;html=1;align=center;verticalAlign=middle;resizable=0;points=[];autosize=1;strokeColor=none;fontColor=#000000;" parent="1" vertex="1">
                    <mxGeometry x="310" y="240" width="40" height="20" as="geometry"/>
                </mxCell>
                <mxCell id="24" value="return" style="text;html=1;align=center;verticalAlign=middle;resizable=0;points=[];autosize=1;strokeColor=none;fontColor=#000000;" parent="1" vertex="1">
                    <mxGeometry x="400" y="250" width="50" height="20" as="geometry"/>
                </mxCell>
            </root>
        </mxGraphModel>
    </diagram>
    <diagram id="7lWBcJ-xW0yfOnrOkHQA" name="mount">
        <mxGraphModel dx="1294" dy="719" grid="1" gridSize="10" guides="1" tooltips="1" connect="1" arrows="1" fold="1" page="1" pageScale="1" pageWidth="850" pageHeight="1100" math="0" shadow="0">
            <root>
                <mxCell id="rSgszNiCOuIrZtf6HK1z-0"/>
                <mxCell id="rSgszNiCOuIrZtf6HK1z-1" parent="rSgszNiCOuIrZtf6HK1z-0"/>
                <mxCell id="rSgszNiCOuIrZtf6HK1z-4" style="edgeStyle=none;rounded=0;orthogonalLoop=1;jettySize=auto;html=1;exitX=0.5;exitY=1;exitDx=0;exitDy=0;entryX=0.5;entryY=0;entryDx=0;entryDy=0;fontColor=#000000;" parent="rSgszNiCOuIrZtf6HK1z-1" source="rSgszNiCOuIrZtf6HK1z-2" target="rSgszNiCOuIrZtf6HK1z-3" edge="1">
                    <mxGeometry relative="1" as="geometry"/>
                </mxCell>
                <mxCell id="rSgszNiCOuIrZtf6HK1z-2" value="fiberRootNode" style="rounded=1;whiteSpace=wrap;html=1;sketch=1;fontColor=#000000;fillColor=none;" parent="rSgszNiCOuIrZtf6HK1z-1" vertex="1">
                    <mxGeometry x="190" y="80" width="150" height="30" as="geometry"/>
                </mxCell>
                <mxCell id="rSgszNiCOuIrZtf6HK1z-3" value="rootFiber" style="rounded=1;whiteSpace=wrap;html=1;sketch=1;fontColor=#000000;fillColor=none;" parent="rSgszNiCOuIrZtf6HK1z-1" vertex="1">
                    <mxGeometry x="110" y="160" width="150" height="30" as="geometry"/>
                </mxCell>
                <mxCell id="rSgszNiCOuIrZtf6HK1z-5" value="current" style="text;html=1;align=center;verticalAlign=middle;resizable=0;points=[];autosize=1;strokeColor=none;fontColor=#000000;" parent="rSgszNiCOuIrZtf6HK1z-1" vertex="1">
                    <mxGeometry x="175" y="120" width="50" height="20" as="geometry"/>
                </mxCell>
            </root>
        </mxGraphModel>
    </diagram>
    <diagram id="BXLWXMqLiDIqgo5Tljp9" name="render">
        <mxGraphModel dx="1294" dy="719" grid="1" gridSize="10" guides="1" tooltips="1" connect="1" arrows="1" fold="1" page="1" pageScale="1" pageWidth="850" pageHeight="1100" math="0" shadow="0">
            <root>
                <mxCell id="3-y5I47lBM4exD5HZoIn-0"/>
                <mxCell id="3-y5I47lBM4exD5HZoIn-1" parent="3-y5I47lBM4exD5HZoIn-0"/>
                <mxCell id="eSdyE75Y-97z8IhZc3L_-0" style="edgeStyle=none;rounded=0;orthogonalLoop=1;jettySize=auto;html=1;exitX=0.5;exitY=1;exitDx=0;exitDy=0;entryX=0.5;entryY=0;entryDx=0;entryDy=0;fontColor=#000000;" parent="3-y5I47lBM4exD5HZoIn-1" source="eSdyE75Y-97z8IhZc3L_-1" target="eSdyE75Y-97z8IhZc3L_-2" edge="1">
                    <mxGeometry relative="1" as="geometry"/>
                </mxCell>
                <mxCell id="eSdyE75Y-97z8IhZc3L_-1" value="fiberRootNode" style="rounded=1;whiteSpace=wrap;html=1;sketch=1;fontColor=#000000;fillColor=none;" parent="3-y5I47lBM4exD5HZoIn-1" vertex="1">
                    <mxGeometry x="190" y="80" width="150" height="30" as="geometry"/>
                </mxCell>
                <mxCell id="eSdyE75Y-97z8IhZc3L_-5" style="edgeStyle=none;rounded=0;orthogonalLoop=1;jettySize=auto;html=1;exitX=1;exitY=0.5;exitDx=0;exitDy=0;entryX=0;entryY=0.5;entryDx=0;entryDy=0;fontColor=#000000;" parent="3-y5I47lBM4exD5HZoIn-1" source="eSdyE75Y-97z8IhZc3L_-2" target="eSdyE75Y-97z8IhZc3L_-4" edge="1">
                    <mxGeometry relative="1" as="geometry"/>
                </mxCell>
                <mxCell id="eSdyE75Y-97z8IhZc3L_-2" value="rootFiber" style="rounded=1;whiteSpace=wrap;html=1;sketch=1;fontColor=#000000;fillColor=none;" parent="3-y5I47lBM4exD5HZoIn-1" vertex="1">
                    <mxGeometry x="110" y="160" width="150" height="30" as="geometry"/>
                </mxCell>
                <mxCell id="eSdyE75Y-97z8IhZc3L_-3" value="current" style="text;html=1;align=center;verticalAlign=middle;resizable=0;points=[];autosize=1;strokeColor=none;fontColor=#000000;" parent="3-y5I47lBM4exD5HZoIn-1" vertex="1">
                    <mxGeometry x="175" y="120" width="50" height="20" as="geometry"/>
                </mxCell>
                <mxCell id="eSdyE75Y-97z8IhZc3L_-8" style="edgeStyle=none;rounded=0;orthogonalLoop=1;jettySize=auto;html=1;exitX=0.5;exitY=1;exitDx=0;exitDy=0;entryX=0.5;entryY=0;entryDx=0;entryDy=0;fontColor=#000000;" parent="3-y5I47lBM4exD5HZoIn-1" source="eSdyE75Y-97z8IhZc3L_-4" target="eSdyE75Y-97z8IhZc3L_-7" edge="1">
                    <mxGeometry relative="1" as="geometry"/>
                </mxCell>
                <mxCell id="eSdyE75Y-97z8IhZc3L_-4" value="rootFiber" style="rounded=1;whiteSpace=wrap;html=1;sketch=1;fontColor=#000000;fillColor=none;" parent="3-y5I47lBM4exD5HZoIn-1" vertex="1">
                    <mxGeometry x="360" y="160" width="150" height="30" as="geometry"/>
                </mxCell>
                <mxCell id="eSdyE75Y-97z8IhZc3L_-6" value="alternate" style="text;html=1;align=center;verticalAlign=middle;resizable=0;points=[];autosize=1;strokeColor=none;fontColor=#000000;" parent="3-y5I47lBM4exD5HZoIn-1" vertex="1">
                    <mxGeometry x="270" y="150" width="60" height="20" as="geometry"/>
                </mxCell>
                <mxCell id="eSdyE75Y-97z8IhZc3L_-10" style="edgeStyle=none;rounded=0;orthogonalLoop=1;jettySize=auto;html=1;exitX=0.5;exitY=1;exitDx=0;exitDy=0;entryX=0.5;entryY=0;entryDx=0;entryDy=0;fontColor=#000000;" parent="3-y5I47lBM4exD5HZoIn-1" source="eSdyE75Y-97z8IhZc3L_-7" target="eSdyE75Y-97z8IhZc3L_-9" edge="1">
                    <mxGeometry relative="1" as="geometry"/>
                </mxCell>
                <mxCell id="eSdyE75Y-97z8IhZc3L_-7" value="App" style="rounded=1;whiteSpace=wrap;html=1;sketch=1;fontColor=#000000;fillColor=none;" parent="3-y5I47lBM4exD5HZoIn-1" vertex="1">
                    <mxGeometry x="360" y="240" width="150" height="30" as="geometry"/>
                </mxCell>
                <mxCell id="eSdyE75Y-97z8IhZc3L_-12" style="edgeStyle=none;rounded=0;orthogonalLoop=1;jettySize=auto;html=1;exitX=0.5;exitY=1;exitDx=0;exitDy=0;entryX=0.5;entryY=0;entryDx=0;entryDy=0;fontColor=#000000;" parent="3-y5I47lBM4exD5HZoIn-1" source="eSdyE75Y-97z8IhZc3L_-9" target="eSdyE75Y-97z8IhZc3L_-11" edge="1">
                    <mxGeometry relative="1" as="geometry"/>
                </mxCell>
                <mxCell id="eSdyE75Y-97z8IhZc3L_-9" value="p" style="rounded=1;whiteSpace=wrap;html=1;sketch=1;fontColor=#000000;fillColor=none;" parent="3-y5I47lBM4exD5HZoIn-1" vertex="1">
                    <mxGeometry x="360" y="320" width="150" height="30" as="geometry"/>
                </mxCell>
                <mxCell id="eSdyE75Y-97z8IhZc3L_-11" value="0" style="rounded=1;whiteSpace=wrap;html=1;sketch=1;fontColor=#000000;fillColor=none;" parent="3-y5I47lBM4exD5HZoIn-1" vertex="1">
                    <mxGeometry x="360" y="400" width="150" height="30" as="geometry"/>
                </mxCell>
                <mxCell id="eSdyE75Y-97z8IhZc3L_-13" value="current fiber tree" style="rounded=0;whiteSpace=wrap;html=1;sketch=1;strokeColor=#006EAF;fillColor=none;verticalAlign=bottom;fontColor=#000000;" parent="3-y5I47lBM4exD5HZoIn-1" vertex="1">
                    <mxGeometry x="90" y="150" width="180" height="110" as="geometry"/>
                </mxCell>
                <mxCell id="eSdyE75Y-97z8IhZc3L_-14" value="workInProgress fiber tree" style="rounded=0;whiteSpace=wrap;html=1;sketch=1;strokeColor=#006EAF;fillColor=none;verticalAlign=bottom;fontColor=#000000;" parent="3-y5I47lBM4exD5HZoIn-1" vertex="1">
                    <mxGeometry x="345" y="140" width="185" height="330" as="geometry"/>
                </mxCell>
            </root>
        </mxGraphModel>
    </diagram>
    <diagram name="render-result" id="Lzp-JjlmUBgkSeBqGc1e">
        <mxGraphModel dx="1294" dy="719" grid="1" gridSize="10" guides="1" tooltips="1" connect="1" arrows="1" fold="1" page="1" pageScale="1" pageWidth="850" pageHeight="1100" math="0" shadow="0">
            <root>
                <mxCell id="DJJL0ClSdQ2MeuLS6-rU-0"/>
                <mxCell id="DJJL0ClSdQ2MeuLS6-rU-1" parent="DJJL0ClSdQ2MeuLS6-rU-0"/>
                <mxCell id="DJJL0ClSdQ2MeuLS6-rU-16" value="current fiber tree" style="rounded=0;whiteSpace=wrap;html=1;sketch=1;strokeColor=#006EAF;fillColor=none;verticalAlign=bottom;fontColor=#000000;" parent="DJJL0ClSdQ2MeuLS6-rU-1" vertex="1">
                    <mxGeometry x="70" y="160" width="185" height="330" as="geometry"/>
                </mxCell>
                <mxCell id="DJJL0ClSdQ2MeuLS6-rU-2" style="edgeStyle=none;rounded=0;orthogonalLoop=1;jettySize=auto;html=1;exitX=0.5;exitY=1;exitDx=0;exitDy=0;fontColor=#000000;entryX=0.5;entryY=0;entryDx=0;entryDy=0;" parent="DJJL0ClSdQ2MeuLS6-rU-1" source="DJJL0ClSdQ2MeuLS6-rU-3" target="DJJL0ClSdQ2MeuLS6-rU-8" edge="1">
                    <mxGeometry relative="1" as="geometry">
                        <mxPoint x="460" y="110" as="targetPoint"/>
                    </mxGeometry>
                </mxCell>
                <mxCell id="DJJL0ClSdQ2MeuLS6-rU-3" value="fiberRootNode" style="rounded=1;whiteSpace=wrap;html=1;sketch=1;fontColor=#000000;fillColor=none;" parent="DJJL0ClSdQ2MeuLS6-rU-1" vertex="1">
                    <mxGeometry x="190" y="80" width="150" height="30" as="geometry"/>
                </mxCell>
                <mxCell id="DJJL0ClSdQ2MeuLS6-rU-6" value="current" style="text;html=1;align=center;verticalAlign=middle;resizable=0;points=[];autosize=1;strokeColor=none;fontColor=#000000;" parent="DJJL0ClSdQ2MeuLS6-rU-1" vertex="1">
                    <mxGeometry x="175" y="120" width="50" height="20" as="geometry"/>
                </mxCell>
                <mxCell id="DJJL0ClSdQ2MeuLS6-rU-7" style="edgeStyle=none;rounded=0;orthogonalLoop=1;jettySize=auto;html=1;exitX=0.5;exitY=1;exitDx=0;exitDy=0;entryX=0.5;entryY=0;entryDx=0;entryDy=0;fontColor=#000000;" parent="DJJL0ClSdQ2MeuLS6-rU-1" source="DJJL0ClSdQ2MeuLS6-rU-8" target="DJJL0ClSdQ2MeuLS6-rU-11" edge="1">
                    <mxGeometry relative="1" as="geometry"/>
                </mxCell>
                <mxCell id="DJJL0ClSdQ2MeuLS6-rU-8" value="rootFiber" style="rounded=1;whiteSpace=wrap;html=1;sketch=1;fontColor=#000000;fillColor=none;" parent="DJJL0ClSdQ2MeuLS6-rU-1" vertex="1">
                    <mxGeometry x="85" y="180" width="150" height="30" as="geometry"/>
                </mxCell>
                <mxCell id="DJJL0ClSdQ2MeuLS6-rU-10" style="edgeStyle=none;rounded=0;orthogonalLoop=1;jettySize=auto;html=1;exitX=0.5;exitY=1;exitDx=0;exitDy=0;entryX=0.5;entryY=0;entryDx=0;entryDy=0;fontColor=#000000;" parent="DJJL0ClSdQ2MeuLS6-rU-1" source="DJJL0ClSdQ2MeuLS6-rU-11" target="DJJL0ClSdQ2MeuLS6-rU-13" edge="1">
                    <mxGeometry relative="1" as="geometry"/>
                </mxCell>
                <mxCell id="DJJL0ClSdQ2MeuLS6-rU-11" value="App" style="rounded=1;whiteSpace=wrap;html=1;sketch=1;fontColor=#000000;fillColor=none;" parent="DJJL0ClSdQ2MeuLS6-rU-1" vertex="1">
                    <mxGeometry x="85" y="260" width="150" height="30" as="geometry"/>
                </mxCell>
                <mxCell id="DJJL0ClSdQ2MeuLS6-rU-12" style="edgeStyle=none;rounded=0;orthogonalLoop=1;jettySize=auto;html=1;exitX=0.5;exitY=1;exitDx=0;exitDy=0;entryX=0.5;entryY=0;entryDx=0;entryDy=0;fontColor=#000000;" parent="DJJL0ClSdQ2MeuLS6-rU-1" source="DJJL0ClSdQ2MeuLS6-rU-13" target="DJJL0ClSdQ2MeuLS6-rU-14" edge="1">
                    <mxGeometry relative="1" as="geometry"/>
                </mxCell>
                <mxCell id="DJJL0ClSdQ2MeuLS6-rU-13" value="p" style="rounded=1;whiteSpace=wrap;html=1;sketch=1;fontColor=#000000;fillColor=none;" parent="DJJL0ClSdQ2MeuLS6-rU-1" vertex="1">
                    <mxGeometry x="85" y="340" width="150" height="30" as="geometry"/>
                </mxCell>
                <mxCell id="DJJL0ClSdQ2MeuLS6-rU-14" value="0" style="rounded=1;whiteSpace=wrap;html=1;sketch=1;fontColor=#000000;fillColor=none;" parent="DJJL0ClSdQ2MeuLS6-rU-1" vertex="1">
                    <mxGeometry x="85" y="420" width="150" height="30" as="geometry"/>
                </mxCell>
            </root>
        </mxGraphModel>
    </diagram>
    <diagram id="dsJX7RO_qYtIzAh1zG1_" name="render-update">
        <mxGraphModel dx="777" dy="473" grid="1" gridSize="10" guides="1" tooltips="1" connect="1" arrows="1" fold="1" page="1" pageScale="1" pageWidth="850" pageHeight="1100" math="0" shadow="0">
            <root>
                <mxCell id="Jf6SnSVHnK8XMWCmzzeB-0"/>
                <mxCell id="Jf6SnSVHnK8XMWCmzzeB-1" parent="Jf6SnSVHnK8XMWCmzzeB-0"/>
                <mxCell id="Gk9MSVcdQNcVruiTgPep-0" value="current fiber tree" style="rounded=0;whiteSpace=wrap;html=1;sketch=1;strokeColor=#006EAF;fillColor=none;verticalAlign=bottom;fontColor=#000000;" vertex="1" parent="Jf6SnSVHnK8XMWCmzzeB-1">
                    <mxGeometry x="70" y="160" width="185" height="330" as="geometry"/>
                </mxCell>
                <mxCell id="Gk9MSVcdQNcVruiTgPep-1" style="edgeStyle=none;rounded=0;orthogonalLoop=1;jettySize=auto;html=1;exitX=0.5;exitY=1;exitDx=0;exitDy=0;fontColor=#000000;entryX=0.5;entryY=0;entryDx=0;entryDy=0;" edge="1" parent="Jf6SnSVHnK8XMWCmzzeB-1" source="Gk9MSVcdQNcVruiTgPep-2" target="Gk9MSVcdQNcVruiTgPep-5">
                    <mxGeometry relative="1" as="geometry">
                        <mxPoint x="460" y="110" as="targetPoint"/>
                    </mxGeometry>
                </mxCell>
                <mxCell id="Gk9MSVcdQNcVruiTgPep-2" value="fiberRootNode" style="rounded=1;whiteSpace=wrap;html=1;sketch=1;fontColor=#000000;fillColor=none;" vertex="1" parent="Jf6SnSVHnK8XMWCmzzeB-1">
                    <mxGeometry x="190" y="80" width="150" height="30" as="geometry"/>
                </mxCell>
                <mxCell id="Gk9MSVcdQNcVruiTgPep-3" value="current" style="text;html=1;align=center;verticalAlign=middle;resizable=0;points=[];autosize=1;strokeColor=none;fontColor=#000000;" vertex="1" parent="Jf6SnSVHnK8XMWCmzzeB-1">
                    <mxGeometry x="175" y="120" width="50" height="20" as="geometry"/>
                </mxCell>
                <mxCell id="Gk9MSVcdQNcVruiTgPep-4" style="edgeStyle=none;rounded=0;orthogonalLoop=1;jettySize=auto;html=1;exitX=0.5;exitY=1;exitDx=0;exitDy=0;entryX=0.5;entryY=0;entryDx=0;entryDy=0;fontColor=#000000;" edge="1" parent="Jf6SnSVHnK8XMWCmzzeB-1" source="Gk9MSVcdQNcVruiTgPep-5" target="Gk9MSVcdQNcVruiTgPep-7">
                    <mxGeometry relative="1" as="geometry"/>
                </mxCell>
                <mxCell id="Gk9MSVcdQNcVruiTgPep-19" style="edgeStyle=none;rounded=0;orthogonalLoop=1;jettySize=auto;html=1;exitX=1;exitY=0.5;exitDx=0;exitDy=0;entryX=0;entryY=0.5;entryDx=0;entryDy=0;fontColor=#000000;startArrow=classic;startFill=1;" edge="1" parent="Jf6SnSVHnK8XMWCmzzeB-1" source="Gk9MSVcdQNcVruiTgPep-5" target="Gk9MSVcdQNcVruiTgPep-13">
                    <mxGeometry relative="1" as="geometry"/>
                </mxCell>
                <mxCell id="Gk9MSVcdQNcVruiTgPep-5" value="rootFiber" style="rounded=1;whiteSpace=wrap;html=1;sketch=1;fontColor=#000000;fillColor=none;" vertex="1" parent="Jf6SnSVHnK8XMWCmzzeB-1">
                    <mxGeometry x="85" y="180" width="150" height="30" as="geometry"/>
                </mxCell>
                <mxCell id="Gk9MSVcdQNcVruiTgPep-6" style="edgeStyle=none;rounded=0;orthogonalLoop=1;jettySize=auto;html=1;exitX=0.5;exitY=1;exitDx=0;exitDy=0;entryX=0.5;entryY=0;entryDx=0;entryDy=0;fontColor=#000000;" edge="1" parent="Jf6SnSVHnK8XMWCmzzeB-1" source="Gk9MSVcdQNcVruiTgPep-7" target="Gk9MSVcdQNcVruiTgPep-9">
                    <mxGeometry relative="1" as="geometry"/>
                </mxCell>
                <mxCell id="Gk9MSVcdQNcVruiTgPep-20" style="edgeStyle=none;rounded=0;orthogonalLoop=1;jettySize=auto;html=1;exitX=1;exitY=0.5;exitDx=0;exitDy=0;entryX=0;entryY=0.5;entryDx=0;entryDy=0;fontColor=#000000;startArrow=classic;startFill=1;" edge="1" parent="Jf6SnSVHnK8XMWCmzzeB-1" source="Gk9MSVcdQNcVruiTgPep-7" target="Gk9MSVcdQNcVruiTgPep-15">
                    <mxGeometry relative="1" as="geometry"/>
                </mxCell>
                <mxCell id="Gk9MSVcdQNcVruiTgPep-7" value="App" style="rounded=1;whiteSpace=wrap;html=1;sketch=1;fontColor=#000000;fillColor=none;" vertex="1" parent="Jf6SnSVHnK8XMWCmzzeB-1">
                    <mxGeometry x="85" y="260" width="150" height="30" as="geometry"/>
                </mxCell>
                <mxCell id="Gk9MSVcdQNcVruiTgPep-8" style="edgeStyle=none;rounded=0;orthogonalLoop=1;jettySize=auto;html=1;exitX=0.5;exitY=1;exitDx=0;exitDy=0;entryX=0.5;entryY=0;entryDx=0;entryDy=0;fontColor=#000000;" edge="1" parent="Jf6SnSVHnK8XMWCmzzeB-1" source="Gk9MSVcdQNcVruiTgPep-9" target="Gk9MSVcdQNcVruiTgPep-10">
                    <mxGeometry relative="1" as="geometry"/>
                </mxCell>
                <mxCell id="Gk9MSVcdQNcVruiTgPep-21" style="edgeStyle=none;rounded=0;orthogonalLoop=1;jettySize=auto;html=1;exitX=1;exitY=0.5;exitDx=0;exitDy=0;entryX=0;entryY=0.5;entryDx=0;entryDy=0;fontColor=#000000;startArrow=classic;startFill=1;" edge="1" parent="Jf6SnSVHnK8XMWCmzzeB-1" source="Gk9MSVcdQNcVruiTgPep-9" target="Gk9MSVcdQNcVruiTgPep-17">
                    <mxGeometry relative="1" as="geometry"/>
                </mxCell>
                <mxCell id="Gk9MSVcdQNcVruiTgPep-9" value="p" style="rounded=1;whiteSpace=wrap;html=1;sketch=1;fontColor=#000000;fillColor=none;" vertex="1" parent="Jf6SnSVHnK8XMWCmzzeB-1">
                    <mxGeometry x="85" y="340" width="150" height="30" as="geometry"/>
                </mxCell>
                <mxCell id="Gk9MSVcdQNcVruiTgPep-10" value="0" style="rounded=1;whiteSpace=wrap;html=1;sketch=1;fontColor=#000000;fillColor=none;" vertex="1" parent="Jf6SnSVHnK8XMWCmzzeB-1">
                    <mxGeometry x="85" y="420" width="150" height="30" as="geometry"/>
                </mxCell>
                <mxCell id="Gk9MSVcdQNcVruiTgPep-11" value="workInProgress fiber tree" style="rounded=0;whiteSpace=wrap;html=1;sketch=1;strokeColor=#006EAF;fillColor=none;verticalAlign=bottom;fontColor=#000000;" vertex="1" parent="Jf6SnSVHnK8XMWCmzzeB-1">
                    <mxGeometry x="360" y="160" width="185" height="330" as="geometry"/>
                </mxCell>
                <mxCell id="Gk9MSVcdQNcVruiTgPep-12" style="edgeStyle=none;rounded=0;orthogonalLoop=1;jettySize=auto;html=1;exitX=0.5;exitY=1;exitDx=0;exitDy=0;entryX=0.5;entryY=0;entryDx=0;entryDy=0;fontColor=#000000;" edge="1" parent="Jf6SnSVHnK8XMWCmzzeB-1" source="Gk9MSVcdQNcVruiTgPep-13" target="Gk9MSVcdQNcVruiTgPep-15">
                    <mxGeometry relative="1" as="geometry"/>
                </mxCell>
                <mxCell id="Gk9MSVcdQNcVruiTgPep-13" value="rootFiber" style="rounded=1;whiteSpace=wrap;html=1;sketch=1;fontColor=#000000;fillColor=none;" vertex="1" parent="Jf6SnSVHnK8XMWCmzzeB-1">
                    <mxGeometry x="375" y="180" width="150" height="30" as="geometry"/>
                </mxCell>
                <mxCell id="Gk9MSVcdQNcVruiTgPep-14" style="edgeStyle=none;rounded=0;orthogonalLoop=1;jettySize=auto;html=1;exitX=0.5;exitY=1;exitDx=0;exitDy=0;entryX=0.5;entryY=0;entryDx=0;entryDy=0;fontColor=#000000;" edge="1" parent="Jf6SnSVHnK8XMWCmzzeB-1" source="Gk9MSVcdQNcVruiTgPep-15" target="Gk9MSVcdQNcVruiTgPep-17">
                    <mxGeometry relative="1" as="geometry"/>
                </mxCell>
                <mxCell id="Gk9MSVcdQNcVruiTgPep-15" value="App" style="rounded=1;whiteSpace=wrap;html=1;sketch=1;fontColor=#000000;fillColor=none;" vertex="1" parent="Jf6SnSVHnK8XMWCmzzeB-1">
                    <mxGeometry x="375" y="260" width="150" height="30" as="geometry"/>
                </mxCell>
                <mxCell id="Gk9MSVcdQNcVruiTgPep-16" style="edgeStyle=none;rounded=0;orthogonalLoop=1;jettySize=auto;html=1;exitX=0.5;exitY=1;exitDx=0;exitDy=0;entryX=0.5;entryY=0;entryDx=0;entryDy=0;fontColor=#000000;" edge="1" parent="Jf6SnSVHnK8XMWCmzzeB-1" source="Gk9MSVcdQNcVruiTgPep-17" target="Gk9MSVcdQNcVruiTgPep-18">
                    <mxGeometry relative="1" as="geometry"/>
                </mxCell>
                <mxCell id="Gk9MSVcdQNcVruiTgPep-17" value="p" style="rounded=1;whiteSpace=wrap;html=1;sketch=1;fontColor=#000000;fillColor=none;" vertex="1" parent="Jf6SnSVHnK8XMWCmzzeB-1">
                    <mxGeometry x="375" y="340" width="150" height="30" as="geometry"/>
                </mxCell>
                <mxCell id="Gk9MSVcdQNcVruiTgPep-18" value="1" style="rounded=1;whiteSpace=wrap;html=1;sketch=1;fontColor=#000000;fillColor=none;" vertex="1" parent="Jf6SnSVHnK8XMWCmzzeB-1">
                    <mxGeometry x="375" y="420" width="150" height="30" as="geometry"/>
                </mxCell>
                <mxCell id="Gk9MSVcdQNcVruiTgPep-22" value="alternate" style="text;html=1;align=center;verticalAlign=middle;resizable=0;points=[];autosize=1;strokeColor=none;fontColor=#000000;" vertex="1" parent="Jf6SnSVHnK8XMWCmzzeB-1">
                    <mxGeometry x="280" y="170" width="60" height="20" as="geometry"/>
                </mxCell>
                <mxCell id="Gk9MSVcdQNcVruiTgPep-23" value="alternate" style="text;html=1;align=center;verticalAlign=middle;resizable=0;points=[];autosize=1;strokeColor=none;fontColor=#000000;" vertex="1" parent="Jf6SnSVHnK8XMWCmzzeB-1">
                    <mxGeometry x="280" y="250" width="60" height="20" as="geometry"/>
                </mxCell>
                <mxCell id="Gk9MSVcdQNcVruiTgPep-24" value="alternate" style="text;html=1;align=center;verticalAlign=middle;resizable=0;points=[];autosize=1;strokeColor=none;fontColor=#000000;" vertex="1" parent="Jf6SnSVHnK8XMWCmzzeB-1">
                    <mxGeometry x="280" y="330" width="60" height="20" as="geometry"/>
                </mxCell>
            </root>
        </mxGraphModel>
    </diagram>
    <diagram name="render-update-result" id="z6zH-wzG7a-ERVDJCbqD">
        <mxGraphModel dx="544" dy="331" grid="1" gridSize="10" guides="1" tooltips="1" connect="1" arrows="1" fold="1" page="1" pageScale="1" pageWidth="850" pageHeight="1100" math="0" shadow="0">
            <root>
                <mxCell id="Ucj03kzXA_G4fTuMqBJB-0"/>
                <mxCell id="Ucj03kzXA_G4fTuMqBJB-1" parent="Ucj03kzXA_G4fTuMqBJB-0"/>
                <mxCell id="Ucj03kzXA_G4fTuMqBJB-2" value="current fiber tree" style="rounded=0;whiteSpace=wrap;html=1;sketch=1;strokeColor=#006EAF;fillColor=none;verticalAlign=bottom;fontColor=#000000;" vertex="1" parent="Ucj03kzXA_G4fTuMqBJB-1">
                    <mxGeometry x="70" y="160" width="185" height="330" as="geometry"/>
                </mxCell>
                <mxCell id="Ucj03kzXA_G4fTuMqBJB-3" style="edgeStyle=none;rounded=0;orthogonalLoop=1;jettySize=auto;html=1;exitX=0.5;exitY=1;exitDx=0;exitDy=0;fontColor=#000000;entryX=0.5;entryY=0;entryDx=0;entryDy=0;" edge="1" parent="Ucj03kzXA_G4fTuMqBJB-1" source="Ucj03kzXA_G4fTuMqBJB-4" target="Ucj03kzXA_G4fTuMqBJB-8">
                    <mxGeometry relative="1" as="geometry">
                        <mxPoint x="460" y="110" as="targetPoint"/>
                    </mxGeometry>
                </mxCell>
                <mxCell id="Ucj03kzXA_G4fTuMqBJB-4" value="fiberRootNode" style="rounded=1;whiteSpace=wrap;html=1;sketch=1;fontColor=#000000;fillColor=none;" vertex="1" parent="Ucj03kzXA_G4fTuMqBJB-1">
                    <mxGeometry x="190" y="80" width="150" height="30" as="geometry"/>
                </mxCell>
                <mxCell id="Ucj03kzXA_G4fTuMqBJB-5" value="current" style="text;html=1;align=center;verticalAlign=middle;resizable=0;points=[];autosize=1;strokeColor=none;fontColor=#000000;" vertex="1" parent="Ucj03kzXA_G4fTuMqBJB-1">
                    <mxGeometry x="175" y="120" width="50" height="20" as="geometry"/>
                </mxCell>
                <mxCell id="Ucj03kzXA_G4fTuMqBJB-6" style="edgeStyle=none;rounded=0;orthogonalLoop=1;jettySize=auto;html=1;exitX=0.5;exitY=1;exitDx=0;exitDy=0;entryX=0.5;entryY=0;entryDx=0;entryDy=0;fontColor=#000000;" edge="1" parent="Ucj03kzXA_G4fTuMqBJB-1" source="Ucj03kzXA_G4fTuMqBJB-8" target="Ucj03kzXA_G4fTuMqBJB-11">
                    <mxGeometry relative="1" as="geometry"/>
                </mxCell>
                <mxCell id="Ucj03kzXA_G4fTuMqBJB-8" value="rootFiber" style="rounded=1;whiteSpace=wrap;html=1;sketch=1;fontColor=#000000;fillColor=none;" vertex="1" parent="Ucj03kzXA_G4fTuMqBJB-1">
                    <mxGeometry x="85" y="180" width="150" height="30" as="geometry"/>
                </mxCell>
                <mxCell id="Ucj03kzXA_G4fTuMqBJB-9" style="edgeStyle=none;rounded=0;orthogonalLoop=1;jettySize=auto;html=1;exitX=0.5;exitY=1;exitDx=0;exitDy=0;entryX=0.5;entryY=0;entryDx=0;entryDy=0;fontColor=#000000;" edge="1" parent="Ucj03kzXA_G4fTuMqBJB-1" source="Ucj03kzXA_G4fTuMqBJB-11" target="Ucj03kzXA_G4fTuMqBJB-14">
                    <mxGeometry relative="1" as="geometry"/>
                </mxCell>
                <mxCell id="Ucj03kzXA_G4fTuMqBJB-11" value="App" style="rounded=1;whiteSpace=wrap;html=1;sketch=1;fontColor=#000000;fillColor=none;" vertex="1" parent="Ucj03kzXA_G4fTuMqBJB-1">
                    <mxGeometry x="85" y="260" width="150" height="30" as="geometry"/>
                </mxCell>
                <mxCell id="Ucj03kzXA_G4fTuMqBJB-12" style="edgeStyle=none;rounded=0;orthogonalLoop=1;jettySize=auto;html=1;exitX=0.5;exitY=1;exitDx=0;exitDy=0;entryX=0.5;entryY=0;entryDx=0;entryDy=0;fontColor=#000000;" edge="1" parent="Ucj03kzXA_G4fTuMqBJB-1" source="Ucj03kzXA_G4fTuMqBJB-14" target="Ucj03kzXA_G4fTuMqBJB-15">
                    <mxGeometry relative="1" as="geometry"/>
                </mxCell>
                <mxCell id="Ucj03kzXA_G4fTuMqBJB-14" value="p" style="rounded=1;whiteSpace=wrap;html=1;sketch=1;fontColor=#000000;fillColor=none;" vertex="1" parent="Ucj03kzXA_G4fTuMqBJB-1">
                    <mxGeometry x="85" y="340" width="150" height="30" as="geometry"/>
                </mxCell>
                <mxCell id="Ucj03kzXA_G4fTuMqBJB-15" value="1" style="rounded=1;whiteSpace=wrap;html=1;sketch=1;fontColor=#000000;fillColor=none;" vertex="1" parent="Ucj03kzXA_G4fTuMqBJB-1">
                    <mxGeometry x="85" y="420" width="150" height="30" as="geometry"/>
                </mxCell>
            </root>
        </mxGraphModel>
    </diagram>
</mxfile>